<?xml version="1.0" encoding="UTF-8" standalone="no"?>
<!-- Created with Inkscape (http://www.inkscape.org/) -->

<svg
   xmlns:dc="http://purl.org/dc/elements/1.1/"
   xmlns:cc="http://creativecommons.org/ns#"
   xmlns:rdf="http://www.w3.org/1999/02/22-rdf-syntax-ns#"
   xmlns:svg="http://www.w3.org/2000/svg"
   xmlns="http://www.w3.org/2000/svg"
   xmlns:sodipodi="http://sodipodi.sourceforge.net/DTD/sodipodi-0.dtd"
   xmlns:inkscape="http://www.inkscape.org/namespaces/inkscape"
   width="514.83331"
   height="161.00003"
   id="svg5281"
   version="1.1"
   inkscape:version="0.48.4 r9939"
   sodipodi:docname="parallel_sets_c.svg">
  <defs
     id="defs5283" />
  <sodipodi:namedview
     id="base"
     pagecolor="#ffffff"
     bordercolor="#666666"
     borderopacity="1.0"
     inkscape:pageopacity="0.0"
     inkscape:pageshadow="2"
     inkscape:zoom="1.3228155"
     inkscape:cx="220.88191"
     inkscape:cy="103.25294"
     inkscape:document-units="px"
     inkscape:current-layer="layer1"
     showgrid="true"
     inkscape:window-width="1112"
     inkscape:window-height="830"
     inkscape:window-x="169"
     inkscape:window-y="122"
     inkscape:window-maximized="0"
     fit-margin-top="5"
     fit-margin-left="5"
     fit-margin-bottom="5"
     fit-margin-right="5"
     inkscape:object-nodes="true"
     inkscape:snap-nodes="true"
     inkscape:snap-bbox="true"
     inkscape:snap-bbox-edge-midpoints="false"
     inkscape:bbox-nodes="false">
    <inkscape:grid
       type="xygrid"
       id="grid5336"
       empspacing="5"
       visible="true"
       enabled="true"
       snapvisiblegridlinesonly="true"
       originx="-73.58334px"
       originy="-556.41663px" />
  </sodipodi:namedview>
  <metadata
     id="metadata5286">
    <rdf:RDF>
      <cc:Work
         rdf:about="">
        <dc:format>image/svg+xml</dc:format>
        <dc:type
           rdf:resource="http://purl.org/dc/dcmitype/StillImage" />
        <dc:title />
      </cc:Work>
    </rdf:RDF>
  </metadata>
  <g
     inkscape:label="Layer 1"
     inkscape:groupmode="layer"
     id="layer1"
     transform="translate(-73.58334,-334.94553)">
    <path
       style="fill:#e6e6e6;fill-opacity:1;stroke:#000000;stroke-width:1px;stroke-linecap:butt;stroke-linejoin:miter;stroke-opacity:1"
       d="m 86.08334,490.44553 0,-150 -7,0 6,5 -6,5 6,5 -6,5 6,5 -6,5 6,5 -6,5 6,5 -6,5 6,5 -6,5 6,5 -6,5 6,5 -6,5 6,5 -6,5 6,5 -6,5 6,5 -6,5 6,5 -6,5 6,5 -6,5 6,5.00002 -6,5 6,5 -6,5 z"
       id="path4415"
       inkscape:connector-curvature="0"
       sodipodi:nodetypes="cccccccccccccccccccccccccccccccccc"
       inkscape:export-filename="D:\w\papers\CaleyDomino-paper-2014\figures\path3291.png"
       inkscape:export-xdpi="150.00424"
       inkscape:export-ydpi="150.00424" />
    <path
       inkscape:export-ydpi="150.00424"
       inkscape:export-xdpi="150.00424"
       inkscape:export-filename="D:\w\papers\CaleyDomino-paper-2014\figures\path3291.png"
       sodipodi:nodetypes="cccccccccccccccccccccccccccccccccc"
       inkscape:connector-curvature="0"
       id="path4417"
       d="m 136.08334,490.44553 0,-150 1.16666,0 5.83334,5 -5.83334,5 5.83334,5 -5.83334,5 5.83334,5 -5.83334,5 5.83334,5 -5.83334,5 5.83334,5 -5.83334,5 5.83334,5 -5.83334,5 5.83334,5 -5.83334,5 5.83334,5 -5.83334,5 5.83334,5 -5.83334,5 5.83334,5 -5.83334,5 5.83334,5 -5.83334,5 5.83334,5 -5.83334,5 5.83334,5 -5.83334,5 5.83334,5.00002 -5.83334,5 5.83334,5 -5.83334,4.99998 z"
       style="fill:#e6e6e6;fill-opacity:1;stroke:#000000;stroke-width:1px;stroke-linecap:butt;stroke-linejoin:miter;stroke-opacity:1" />
    <g
       transform="translate(326.92784,749.30405)"
       id="g4419">
      <path
         sodipodi:nodetypes="ccccc"
         inkscape:connector-curvature="0"
         id="path4421"
         d="m -180.3445,-259.35852 150,-51 0,-48 -150,52 z"
         style="fill:#e6e6e6;fill-opacity:1;stroke:#000000;stroke-width:1px;stroke-linecap:butt;stroke-linejoin:miter;stroke-opacity:1" />
      <path
         sodipodi:nodetypes="ccccc"
         inkscape:connector-curvature="0"
         id="path4423"
         d="m -179.8445,-408.85852 150,0 0,51 -150,0 z"
         style="fill:#e6e6e6;fill-opacity:1;stroke:#000000;stroke-width:1px;stroke-linecap:butt;stroke-linejoin:miter;stroke-opacity:1" />
      <path
         sodipodi:nodetypes="ccccc"
         inkscape:connector-curvature="0"
         id="path4425"
         d="m -180.3445,-358.35852 150,52 0,47 -150,-51 z"
         style="fill:#e6e6e6;fill-opacity:1;stroke:#000000;stroke-width:1px;stroke-linecap:butt;stroke-linejoin:miter;stroke-opacity:1" />
      <path
         inkscape:export-ydpi="150.00424"
         inkscape:export-xdpi="150.00424"
         inkscape:export-filename="D:\w\papers\CaleyDomino-paper-2014\figures\path3291.png"
         sodipodi:nodetypes="cccccccccccccccccccccccccccccccccc"
         inkscape:connector-curvature="0"
         id="path4427"
         d="m -179.8445,-258.85851 0,-150 -9.5,-10e-6 6,5 -6,5 6,4.99999 -6,5 6,5 -6,5 6,5 -6,5 6,5 -6,5 6,5 -6,5 6,5 -6,5 6,5 -6,5 6,5 -6,5 6,5 -6,5 6,5 -6,5 6,5 -6,5 6,5 -6,5 6,5.00002 -6,5 6,5 -6,5 z"
         style="fill:#cccccc;fill-opacity:1;stroke:#000000;stroke-width:1px;stroke-linecap:butt;stroke-linejoin:miter;stroke-opacity:1" />
      <path
         style="fill:#cccccc;fill-opacity:1;stroke:#000000;stroke-width:1px;stroke-linecap:butt;stroke-linejoin:miter;stroke-opacity:1"
         d="m -30.8445,-258.85852 0,-150 3.6667,0 5.8333,5 -5.8333,5 5.8333,4.99999 -5.8333,5 5.8333,5 -5.8333,5 5.8333,5 -5.8333,5 5.8333,5 -5.8333,5 5.8333,5 -5.8333,5 5.8333,5 -5.8333,5 5.8333,5 -5.8333,5 5.8333,5 -5.8333,5 5.8333,5 -5.8333,5 5.8333,5 -5.8333,5 5.8333,5 -5.8333,5 5.8333,5 -5.8333,5 5.8333,5.00002 -5.8333,5 5.8333,5 -5.8333,4.99998 z"
         id="path4429"
         inkscape:connector-curvature="0"
         sodipodi:nodetypes="cccccccccccccccccccccccccccccccccc"
         inkscape:export-filename="D:\w\papers\CaleyDomino-paper-2014\figures\path3291.png"
         inkscape:export-xdpi="150.00424"
         inkscape:export-ydpi="150.00424" />
    </g>
    <path
       style="fill:#e6e6e6;fill-opacity:1;stroke:#000000;stroke-width:1px;stroke-linecap:butt;stroke-linejoin:miter;stroke-opacity:1"
       d="m 306.08334,490.44553 0,-150 -7,0 6,5 -6,5 6,5 -6,5 6,5 -6,5 6,5 -6,5 6,5 -6,5 6,5 -6,5 6,5 -6,5 6,5 -6,5 6,5 -6,5 6,5 -6,5 6,5 -6,5 6,5 -6,5 6,5 -6,5 6,5.00002 -6,5 6,5 -6,5 z"
       id="path4433"
       inkscape:connector-curvature="0"
       sodipodi:nodetypes="cccccccccccccccccccccccccccccccccc"
       inkscape:export-filename="D:\w\papers\CaleyDomino-paper-2014\figures\path3291.png"
       inkscape:export-xdpi="150.00424"
       inkscape:export-ydpi="150.00424" />
    <path
       inkscape:export-ydpi="150.00424"
       inkscape:export-xdpi="150.00424"
       inkscape:export-filename="D:\w\papers\CaleyDomino-paper-2014\figures\path3291.png"
       sodipodi:nodetypes="cccccccccccccccccccccccccccccccccc"
       inkscape:connector-curvature="0"
       id="path4435"
       d="m 356.08334,490.44553 0,-150 1.16666,0 5.83334,5 -5.83334,5 5.83334,5 -5.83334,5 5.83334,5 -5.83334,5 5.83334,5 -5.83334,5 5.83334,5 -5.83334,5 5.83334,5 -5.83334,5 5.83334,5 -5.83334,5 5.83334,5 -5.83334,5 5.83334,5 -5.83334,5 5.83334,5 -5.83334,5 5.83334,5 -5.83334,5 5.83334,5 -5.83334,5 5.83334,5 -5.83334,5 5.83334,5.00002 -5.83334,5 5.83334,5 -5.83334,4.99998 z"
       style="fill:#e6e6e6;fill-opacity:1;stroke:#000000;stroke-width:1px;stroke-linecap:butt;stroke-linejoin:miter;stroke-opacity:1" />
    <g
       id="g3050"
       transform="translate(546.92784,749.30405)">
      <path
         style="fill:#e6e6e6;fill-opacity:1;stroke:#000000;stroke-width:1px;stroke-linecap:butt;stroke-linejoin:miter;stroke-opacity:1"
         d="m -180.3445,-259.35852 150,-51 0,-48 -150,52 z"
         id="path3052"
         inkscape:connector-curvature="0"
         sodipodi:nodetypes="ccccc" />
      <path
         style="fill:#e6e6e6;fill-opacity:1;stroke:#000000;stroke-width:1px;stroke-linecap:butt;stroke-linejoin:miter;stroke-opacity:1"
         d="m -179.8445,-408.85852 150,0 0,51 -150,0 z"
         id="path3054"
         inkscape:connector-curvature="0"
         sodipodi:nodetypes="ccccc" />
      <path
         style="fill:#e6e6e6;fill-opacity:1;stroke:#000000;stroke-width:1px;stroke-linecap:butt;stroke-linejoin:miter;stroke-opacity:1"
         d="m -180.3445,-358.35852 150,52 0,47 -150,-51 z"
         id="path3056"
         inkscape:connector-curvature="0"
         sodipodi:nodetypes="ccccc" />
      <path
         style="fill:#cccccc;fill-opacity:1;stroke:#000000;stroke-width:1px;stroke-linecap:butt;stroke-linejoin:miter;stroke-opacity:1"
         d="m -179.8445,-258.85851 0,-150 -9.5,-10e-6 6,5 -6,5 6,4.99999 -6,5 6,5 -6,5 6,5 -6,5 6,5 -6,5 6,5 -6,5 6,5 -6,5 6,5 -6,5 6,5 -6,5 6,5 -6,5 6,5 -6,5 6,5 -6,5 6,5 -6,5 6,5.00002 -6,5 6,5 -6,5 z"
         id="path3058"
         inkscape:connector-curvature="0"
         sodipodi:nodetypes="cccccccccccccccccccccccccccccccccc"
         inkscape:export-filename="D:\w\papers\CaleyDomino-paper-2014\figures\path3291.png"
         inkscape:export-xdpi="150.00424"
         inkscape:export-ydpi="150.00424" />
      <path
         inkscape:export-ydpi="150.00424"
         inkscape:export-xdpi="150.00424"
         inkscape:export-filename="D:\w\papers\CaleyDomino-paper-2014\figures\path3291.png"
         sodipodi:nodetypes="cccccccccccccccccccccccccccccccccc"
         inkscape:connector-curvature="0"
         id="path3060"
         d="m -30.8445,-258.85852 0,-150 3.6667,0 5.8333,5 -5.8333,5 5.8333,4.99999 -5.8333,5 5.8333,5 -5.8333,5 5.8333,5 -5.8333,5 5.8333,5 -5.8333,5 5.8333,5 -5.8333,5 5.8333,5 -5.8333,5 5.8333,5 -5.8333,5 5.8333,5 -5.8333,5 5.8333,5 -5.8333,5 5.8333,5 -5.8333,5 5.8333,5 -5.8333,5 5.8333,5 -5.8333,5 5.8333,5.00002 -5.8333,5 5.8333,5 -5.8333,4.99998 z"
         style="fill:#cccccc;fill-opacity:1;stroke:#000000;stroke-width:1px;stroke-linecap:butt;stroke-linejoin:miter;stroke-opacity:1" />
    </g>
    <path
       inkscape:export-ydpi="150.00424"
       inkscape:export-xdpi="150.00424"
       inkscape:export-filename="D:\w\papers\CaleyDomino-paper-2014\figures\path3291.png"
       sodipodi:nodetypes="cccccccccccccccccccccccccccccccccc"
       inkscape:connector-curvature="0"
       id="path3064"
       d="m 526.08334,490.44553 0,-150 -7,0 6,5 -6,5 6,5 -6,5 6,5 -6,5 6,5 -6,5 6,5 -6,5 6,5 -6,5 6,5 -6,5 6,5 -6,5 6,5 -6,5 6,5 -6,5 6,5 -6,5 6,5 -6,5 6,5 -6,5 6,5.00002 -6,5 6,5 -6,5 z"
       style="fill:#e6e6e6;fill-opacity:1;stroke:#000000;stroke-width:1px;stroke-linecap:butt;stroke-linejoin:miter;stroke-opacity:1" />
    <path
       style="fill:#e6e6e6;fill-opacity:1;stroke:#000000;stroke-width:1px;stroke-linecap:butt;stroke-linejoin:miter;stroke-opacity:1"
       d="m 575.91668,490.44553 0,-150 1.16666,0 5.83334,5 -5.83334,5 5.83334,5 -5.83334,5 5.83334,5 -5.83334,5 5.83334,5 -5.83334,5 5.83334,5 -5.83334,5 5.83334,5 -5.83334,5 5.83334,5 -5.83334,5 5.83334,5 -5.83334,5 5.83334,5 -5.83334,5 5.83334,5 -5.83334,5 5.83334,5 -5.83334,5 5.83334,5 -5.83334,5 5.83334,5 -5.83334,5 5.83334,5.00002 -5.83334,5 5.83334,5 -5.83334,4.99998 z"
       id="path3066"
       inkscape:connector-curvature="0"
       sodipodi:nodetypes="cccccccccccccccccccccccccccccccccc"
       inkscape:export-filename="D:\w\papers\CaleyDomino-paper-2014\figures\path3291.png"
       inkscape:export-xdpi="150.00424"
       inkscape:export-ydpi="150.00424" />
    <g
       id="g3452"
       transform="translate(686.58334,17.583344)">
      <rect
         style="color:#000000;fill:#ff6f6f;fill-opacity:1;stroke:none;stroke-width:15;marker:none;visibility:visible;display:inline;overflow:visible;enable-background:accumulate"
         id="rect3454"
         width="51"
         height="99"
         x="-161"
         y="322.36218" />
      <rect
         y="424.36218"
         x="-161"
         height="49.000008"
         width="51"
         id="rect3456"
         style="color:#000000;fill:#ffbfbf;fill-opacity:1;stroke:none;stroke-width:15;marker:none;visibility:visible;display:inline;overflow:visible;enable-background:accumulate" />
      <path
         style="color:#000000;fill:none;stroke:#000000;stroke-width:1;stroke-miterlimit:4;stroke-opacity:1;marker:none;visibility:visible;display:inline;overflow:visible;enable-background:accumulate"
         d="m -110.5,424.8622 0,48 -50,0 0,-48 z m -50,-4 0,-98.00001 50,0 0,98.00001 z"
         id="path3458"
         inkscape:connector-curvature="0"
         sodipodi:nodetypes="cccccccccc" />
    </g>
    <g
       transform="translate(466.58334,17.583344)"
       id="g3026">
      <rect
         y="322.36218"
         x="-161"
         height="99"
         width="51"
         id="rect3028"
         style="color:#000000;fill:#ff6f6f;fill-opacity:1;stroke:none;stroke-width:15;marker:none;visibility:visible;display:inline;overflow:visible;enable-background:accumulate" />
      <rect
         style="color:#000000;fill:#ffbfbf;fill-opacity:1;stroke:none;stroke-width:15;marker:none;visibility:visible;display:inline;overflow:visible;enable-background:accumulate"
         id="rect3030"
         width="51"
         height="49.000008"
         x="-161"
         y="424.36218" />
      <path
         sodipodi:nodetypes="cccccccccc"
         inkscape:connector-curvature="0"
         id="path3032"
         d="m -110.5,424.8622 0,48 -50,0 0,-48 z m -50,-4 0,-98.00001 50,0 0,98.00001 z"
         style="color:#000000;fill:none;stroke:#000000;stroke-width:1;stroke-miterlimit:4;stroke-opacity:1;marker:none;visibility:visible;display:inline;overflow:visible;enable-background:accumulate" />
    </g>
    <g
       id="g3034"
       transform="translate(246.58334,17.583344)">
      <rect
         style="color:#000000;fill:#ff6f6f;fill-opacity:1;stroke:none;stroke-width:15;marker:none;visibility:visible;display:inline;overflow:visible;enable-background:accumulate"
         id="rect3036"
         width="51"
         height="99"
         x="-161"
         y="322.36218" />
      <rect
         y="424.36218"
         x="-161"
         height="49.000008"
         width="51"
         id="rect3038"
         style="color:#000000;fill:#ffbfbf;fill-opacity:1;stroke:none;stroke-width:15;marker:none;visibility:visible;display:inline;overflow:visible;enable-background:accumulate" />
      <path
         style="color:#000000;fill:none;stroke:#000000;stroke-width:1;stroke-miterlimit:4;stroke-opacity:1;marker:none;visibility:visible;display:inline;overflow:visible;enable-background:accumulate"
         d="m -110.5,424.8622 0,48 -50,0 0,-48 z m -50,-4 0,-98.00001 50,0 0,98.00001 z"
         id="path3040"
         inkscape:connector-curvature="0"
         sodipodi:nodetypes="cccccccccc" />
    </g>
  </g>
</svg>
