<?xml version="1.0" encoding="UTF-8" standalone="no"?>
<!-- Created with Inkscape (http://www.inkscape.org/) -->

<svg
   xmlns:dc="http://purl.org/dc/elements/1.1/"
   xmlns:cc="http://creativecommons.org/ns#"
   xmlns:rdf="http://www.w3.org/1999/02/22-rdf-syntax-ns#"
   xmlns:svg="http://www.w3.org/2000/svg"
   xmlns="http://www.w3.org/2000/svg"
   xmlns:sodipodi="http://sodipodi.sourceforge.net/DTD/sodipodi-0.dtd"
   xmlns:inkscape="http://www.inkscape.org/namespaces/inkscape"
   width="393.00006"
   height="393"
   id="svg5474"
   version="1.1"
   inkscape:version="0.48.4 r9939"
   sodipodi:docname="scatterplot_matrix_c.svg">
  <defs
     id="defs5476" />
  <sodipodi:namedview
     id="base"
     pagecolor="#ffffff"
     bordercolor="#666666"
     borderopacity="1.0"
     inkscape:pageopacity="0.0"
     inkscape:pageshadow="2"
     inkscape:zoom="0.83543195"
     inkscape:cx="296.30812"
     inkscape:cy="288.14859"
     inkscape:document-units="px"
     inkscape:current-layer="layer1"
     showgrid="true"
     fit-margin-top="5"
     fit-margin-left="5"
     fit-margin-bottom="5"
     fit-margin-right="5"
     inkscape:window-width="1162"
     inkscape:window-height="891"
     inkscape:window-x="45"
     inkscape:window-y="22"
     inkscape:window-maximized="0"
     inkscape:snap-bbox="true"
     inkscape:object-nodes="true"
     showguides="true"
     inkscape:guide-bbox="true">
    <inkscape:grid
       type="xygrid"
       id="grid3022"
       empspacing="5"
       visible="true"
       enabled="true"
       snapvisiblegridlinesonly="true"
       originx="0.5px"
       originy="1.4999874px" />
    <sodipodi:guide
       orientation="1,0"
       position="12.5,391.49999"
       id="guide3318" />
  </sodipodi:namedview>
  <metadata
     id="metadata5479">
    <rdf:RDF>
      <cc:Work
         rdf:about="">
        <dc:format>image/svg+xml</dc:format>
        <dc:type
           rdf:resource="http://purl.org/dc/dcmitype/StillImage" />
        <dc:title />
      </cc:Work>
    </rdf:RDF>
  </metadata>
  <g
     inkscape:label="Layer 1"
     inkscape:groupmode="layer"
     id="layer1"
     transform="translate(-413.32143,-378.52818)">
    <g
       id="g4377"
       transform="translate(476.66593,766.88671)">
      <path
         transform="translate(-315.8445,-447.22071)"
         d="m 355,252.36218 c 0,2.76143 -2.23858,5 -5,5 -2.76142,0 -5,-2.23857 -5,-5 0,-2.76142 2.23858,-5 5,-5 2.76142,0 5,2.23858 5,5 z"
         sodipodi:ry="5"
         sodipodi:rx="5"
         sodipodi:cy="252.36218"
         sodipodi:cx="350"
         id="path4379"
         style="opacity:0.8;color:#000000;fill:#e5e5e5;fill-opacity:0.9372549;fill-rule:nonzero;stroke:#000000;stroke-width:1;stroke-linecap:round;stroke-linejoin:bevel;stroke-miterlimit:4;stroke-opacity:1;stroke-dasharray:none;stroke-dashoffset:0;marker:none;visibility:visible;display:inline;overflow:visible;enable-background:accumulate"
         sodipodi:type="arc" />
      <path
         sodipodi:type="arc"
         style="opacity:0.8;color:#000000;fill:#e5e5e5;fill-opacity:0.9372549;fill-rule:nonzero;stroke:#000000;stroke-width:1;stroke-linecap:round;stroke-linejoin:bevel;stroke-miterlimit:4;stroke-opacity:1;stroke-dasharray:none;stroke-dashoffset:0;marker:none;visibility:visible;display:inline;overflow:visible;enable-background:accumulate"
         id="path4381"
         sodipodi:cx="350"
         sodipodi:cy="252.36218"
         sodipodi:rx="5"
         sodipodi:ry="5"
         d="m 355,252.36218 c 0,2.76143 -2.23858,5 -5,5 -2.76142,0 -5,-2.23857 -5,-5 0,-2.76142 2.23858,-5 5,-5 2.76142,0 5,2.23858 5,5 z"
         transform="translate(-255.8445,-421.72071)" />
      <path
         transform="translate(-310.3445,-367.22071)"
         d="m 355,252.36218 c 0,2.76143 -2.23858,5 -5,5 -2.76142,0 -5,-2.23857 -5,-5 0,-2.76142 2.23858,-5 5,-5 2.76142,0 5,2.23858 5,5 z"
         sodipodi:ry="5"
         sodipodi:rx="5"
         sodipodi:cy="252.36218"
         sodipodi:cx="350"
         id="path4383"
         style="opacity:0.8;color:#000000;fill:#e5e5e5;fill-opacity:0.9372549;fill-rule:nonzero;stroke:#000000;stroke-width:1;stroke-linecap:round;stroke-linejoin:bevel;stroke-miterlimit:4;stroke-opacity:1;stroke-dasharray:none;stroke-dashoffset:0;marker:none;visibility:visible;display:inline;overflow:visible;enable-background:accumulate"
         sodipodi:type="arc" />
      <path
         sodipodi:type="arc"
         style="opacity:0.8;color:#000000;fill:#e5e5e5;fill-opacity:0.9372549;fill-rule:nonzero;stroke:#000000;stroke-width:1;stroke-linecap:round;stroke-linejoin:bevel;stroke-miterlimit:4;stroke-opacity:1;stroke-dasharray:none;stroke-dashoffset:0;marker:none;visibility:visible;display:inline;overflow:visible;enable-background:accumulate"
         id="path4385"
         sodipodi:cx="350"
         sodipodi:cy="252.36218"
         sodipodi:rx="5"
         sodipodi:ry="5"
         d="m 355,252.36218 c 0,2.76143 -2.23858,5 -5,5 -2.76142,0 -5,-2.23857 -5,-5 0,-2.76142 2.23858,-5 5,-5 2.76142,0 5,2.23858 5,5 z"
         transform="translate(-230.3445,-357.22071)" />
      <path
         transform="translate(-215.8445,-401.72071)"
         d="m 355,252.36218 c 0,2.76143 -2.23858,5 -5,5 -2.76142,0 -5,-2.23857 -5,-5 0,-2.76142 2.23858,-5 5,-5 2.76142,0 5,2.23858 5,5 z"
         sodipodi:ry="5"
         sodipodi:rx="5"
         sodipodi:cy="252.36218"
         sodipodi:cx="350"
         id="path4387"
         style="opacity:0.8;color:#000000;fill:#e5e5e5;fill-opacity:0.9372549;fill-rule:nonzero;stroke:#000000;stroke-width:1;stroke-linecap:round;stroke-linejoin:bevel;stroke-miterlimit:4;stroke-opacity:1;stroke-dasharray:none;stroke-dashoffset:0;marker:none;visibility:visible;display:inline;overflow:visible;enable-background:accumulate"
         sodipodi:type="arc" />
      <path
         style="fill:#cccccc;fill-opacity:1;stroke:#000000;stroke-width:1px;stroke-linecap:butt;stroke-linejoin:miter;stroke-opacity:1"
         d="m 9.1555,-69.85852 0,-150 -9.5,-1e-5 6,5 -6,5 6,4.99999 -6,5 6,5 -6,5 6,5 -6,5 6,5 -6,5 6,5 -6,5 6,5 -6,5 6,5 -6,5 6,5 -6,5 6,5 -6,5 6,5 -6,5 6,5 -6,5 6,5 -6,5 6,5.00002 -6,5 6,5 -6,5 z"
         id="path4389"
         inkscape:connector-curvature="0"
         sodipodi:nodetypes="cccccccccccccccccccccccccccccccccc"
         inkscape:export-filename="D:\w\papers\CaleyDomino-paper-2014\figures\path3291.png"
         inkscape:export-xdpi="150.00424"
         inkscape:export-ydpi="150.00424" />
      <path
         inkscape:export-ydpi="150.00424"
         inkscape:export-xdpi="150.00424"
         inkscape:export-filename="D:\w\papers\CaleyDomino-paper-2014\figures\path3291.png"
         sodipodi:nodetypes="cccccccccccccccccccccccccccccccccc"
         inkscape:connector-curvature="0"
         id="path4391"
         d="m 160.1555,-68.85852 -150,0 0,9.5 5,-6 5,6 5,-6 5,6 5,-6 5,6 5,-6 5,6 5,-6 5,6 5,-6 5,6 5,-6 5,6 5,-6 5,6 5,-6 5,6 5,-6 5,6 5,-6 5,6 5,-6 5,6 5,-6 5,6 5,-6 5,6 5,-6 5,6 z"
         style="fill:#cccccc;fill-opacity:1;stroke:#000000;stroke-width:1px;stroke-linecap:butt;stroke-linejoin:miter;stroke-opacity:1" />
    </g>
    <g
       transform="translate(477.66593,603.88671)"
       id="g3006">
      <path
         sodipodi:type="arc"
         style="opacity:0.8;color:#000000;fill:#e5e5e5;fill-opacity:0.9372549;fill-rule:nonzero;stroke:#000000;stroke-width:1;stroke-linecap:round;stroke-linejoin:bevel;stroke-miterlimit:4;stroke-opacity:1;stroke-dasharray:none;stroke-dashoffset:0;marker:none;visibility:visible;display:inline;overflow:visible;enable-background:accumulate"
         id="path3008"
         sodipodi:cx="350"
         sodipodi:cy="252.36218"
         sodipodi:rx="5"
         sodipodi:ry="5"
         d="m 355,252.36218 c 0,2.76143 -2.23858,5 -5,5 -2.76142,0 -5,-2.23857 -5,-5 0,-2.76142 2.23858,-5 5,-5 2.76142,0 5,2.23858 5,5 z"
         transform="translate(-315.8445,-447.22071)" />
      <path
         transform="translate(-255.8445,-421.72071)"
         d="m 355,252.36218 c 0,2.76143 -2.23858,5 -5,5 -2.76142,0 -5,-2.23857 -5,-5 0,-2.76142 2.23858,-5 5,-5 2.76142,0 5,2.23858 5,5 z"
         sodipodi:ry="5"
         sodipodi:rx="5"
         sodipodi:cy="252.36218"
         sodipodi:cx="350"
         id="path3010"
         style="opacity:0.8;color:#000000;fill:#e5e5e5;fill-opacity:0.9372549;fill-rule:nonzero;stroke:#000000;stroke-width:1;stroke-linecap:round;stroke-linejoin:bevel;stroke-miterlimit:4;stroke-opacity:1;stroke-dasharray:none;stroke-dashoffset:0;marker:none;visibility:visible;display:inline;overflow:visible;enable-background:accumulate"
         sodipodi:type="arc" />
      <path
         sodipodi:type="arc"
         style="opacity:0.8;color:#000000;fill:#e5e5e5;fill-opacity:0.9372549;fill-rule:nonzero;stroke:#000000;stroke-width:1;stroke-linecap:round;stroke-linejoin:bevel;stroke-miterlimit:4;stroke-opacity:1;stroke-dasharray:none;stroke-dashoffset:0;marker:none;visibility:visible;display:inline;overflow:visible;enable-background:accumulate"
         id="path3012"
         sodipodi:cx="350"
         sodipodi:cy="252.36218"
         sodipodi:rx="5"
         sodipodi:ry="5"
         d="m 355,252.36218 c 0,2.76143 -2.23858,5 -5,5 -2.76142,0 -5,-2.23857 -5,-5 0,-2.76142 2.23858,-5 5,-5 2.76142,0 5,2.23858 5,5 z"
         transform="translate(-310.3445,-367.22071)" />
      <path
         transform="translate(-230.3445,-357.22071)"
         d="m 355,252.36218 c 0,2.76143 -2.23858,5 -5,5 -2.76142,0 -5,-2.23857 -5,-5 0,-2.76142 2.23858,-5 5,-5 2.76142,0 5,2.23858 5,5 z"
         sodipodi:ry="5"
         sodipodi:rx="5"
         sodipodi:cy="252.36218"
         sodipodi:cx="350"
         id="path3014"
         style="opacity:0.8;color:#000000;fill:#e5e5e5;fill-opacity:0.9372549;fill-rule:nonzero;stroke:#000000;stroke-width:1;stroke-linecap:round;stroke-linejoin:bevel;stroke-miterlimit:4;stroke-opacity:1;stroke-dasharray:none;stroke-dashoffset:0;marker:none;visibility:visible;display:inline;overflow:visible;enable-background:accumulate"
         sodipodi:type="arc" />
      <path
         sodipodi:type="arc"
         style="opacity:0.8;color:#000000;fill:#e5e5e5;fill-opacity:0.9372549;fill-rule:nonzero;stroke:#000000;stroke-width:1;stroke-linecap:round;stroke-linejoin:bevel;stroke-miterlimit:4;stroke-opacity:1;stroke-dasharray:none;stroke-dashoffset:0;marker:none;visibility:visible;display:inline;overflow:visible;enable-background:accumulate"
         id="path3016"
         sodipodi:cx="350"
         sodipodi:cy="252.36218"
         sodipodi:rx="5"
         sodipodi:ry="5"
         d="m 355,252.36218 c 0,2.76143 -2.23858,5 -5,5 -2.76142,0 -5,-2.23857 -5,-5 0,-2.76142 2.23858,-5 5,-5 2.76142,0 5,2.23858 5,5 z"
         transform="translate(-215.8445,-401.72071)" />
      <path
         inkscape:export-ydpi="150.00424"
         inkscape:export-xdpi="150.00424"
         inkscape:export-filename="D:\w\papers\CaleyDomino-paper-2014\figures\path3291.png"
         sodipodi:nodetypes="cccccccccccccccccccccccccccccccccc"
         inkscape:connector-curvature="0"
         id="path3018"
         d="m 9.1555,-69.85852 0,-150 -9.5,-1e-5 6,5 -6,5 6,4.99999 -6,5 6,5 -6,5 6,5 -6,5 6,5 -6,5 6,5 -6,5 6,5 -6,5 6,5 -6,5 6,5 -6,5 6,5 -6,5 6,5 -6,5 6,5 -6,5 6,5 -6,5 6,5.00002 -6,5 6,5 -6,5 z"
         style="fill:#cccccc;fill-opacity:1;stroke:#000000;stroke-width:1px;stroke-linecap:butt;stroke-linejoin:miter;stroke-opacity:1" />
      <path
         style="fill:#cccccc;fill-opacity:1;stroke:#000000;stroke-width:1px;stroke-linecap:butt;stroke-linejoin:miter;stroke-opacity:1"
         d="m 160.1555,-68.85852 -150,0 0,9.5 5,-6 5,6 5,-6 5,6 5,-6 5,6 5,-6 5,6 5,-6 5,6 5,-6 5,6 5,-6 5,6 5,-6 5,6 5,-6 5,6 5,-6 5,6 5,-6 5,6 5,-6 5,6 5,-6 5,6 5,-6 5,6 5,-6 5,6 z"
         id="path3020"
         inkscape:connector-curvature="0"
         sodipodi:nodetypes="cccccccccccccccccccccccccccccccccc"
         inkscape:export-filename="D:\w\papers\CaleyDomino-paper-2014\figures\path3291.png"
         inkscape:export-xdpi="150.00424"
         inkscape:export-ydpi="150.00424" />
    </g>
    <g
       transform="translate(640.66593,766.88671)"
       id="g3032">
      <path
         sodipodi:type="arc"
         style="opacity:0.8;color:#000000;fill:#e5e5e5;fill-opacity:0.9372549;fill-rule:nonzero;stroke:#000000;stroke-width:1;stroke-linecap:round;stroke-linejoin:bevel;stroke-miterlimit:4;stroke-opacity:1;stroke-dasharray:none;stroke-dashoffset:0;marker:none;visibility:visible;display:inline;overflow:visible;enable-background:accumulate"
         id="path3034"
         sodipodi:cx="350"
         sodipodi:cy="252.36218"
         sodipodi:rx="5"
         sodipodi:ry="5"
         d="m 355,252.36218 c 0,2.76143 -2.23858,5 -5,5 -2.76142,0 -5,-2.23857 -5,-5 0,-2.76142 2.23858,-5 5,-5 2.76142,0 5,2.23858 5,5 z"
         transform="translate(-315.8445,-447.22071)" />
      <path
         transform="translate(-255.8445,-421.72071)"
         d="m 355,252.36218 c 0,2.76143 -2.23858,5 -5,5 -2.76142,0 -5,-2.23857 -5,-5 0,-2.76142 2.23858,-5 5,-5 2.76142,0 5,2.23858 5,5 z"
         sodipodi:ry="5"
         sodipodi:rx="5"
         sodipodi:cy="252.36218"
         sodipodi:cx="350"
         id="path3036"
         style="opacity:0.8;color:#000000;fill:#e5e5e5;fill-opacity:0.9372549;fill-rule:nonzero;stroke:#000000;stroke-width:1;stroke-linecap:round;stroke-linejoin:bevel;stroke-miterlimit:4;stroke-opacity:1;stroke-dasharray:none;stroke-dashoffset:0;marker:none;visibility:visible;display:inline;overflow:visible;enable-background:accumulate"
         sodipodi:type="arc" />
      <path
         sodipodi:type="arc"
         style="opacity:0.8;color:#000000;fill:#e5e5e5;fill-opacity:0.9372549;fill-rule:nonzero;stroke:#000000;stroke-width:1;stroke-linecap:round;stroke-linejoin:bevel;stroke-miterlimit:4;stroke-opacity:1;stroke-dasharray:none;stroke-dashoffset:0;marker:none;visibility:visible;display:inline;overflow:visible;enable-background:accumulate"
         id="path3038"
         sodipodi:cx="350"
         sodipodi:cy="252.36218"
         sodipodi:rx="5"
         sodipodi:ry="5"
         d="m 355,252.36218 c 0,2.76143 -2.23858,5 -5,5 -2.76142,0 -5,-2.23857 -5,-5 0,-2.76142 2.23858,-5 5,-5 2.76142,0 5,2.23858 5,5 z"
         transform="translate(-310.3445,-367.22071)" />
      <path
         transform="translate(-230.3445,-357.22071)"
         d="m 355,252.36218 c 0,2.76143 -2.23858,5 -5,5 -2.76142,0 -5,-2.23857 -5,-5 0,-2.76142 2.23858,-5 5,-5 2.76142,0 5,2.23858 5,5 z"
         sodipodi:ry="5"
         sodipodi:rx="5"
         sodipodi:cy="252.36218"
         sodipodi:cx="350"
         id="path3040"
         style="opacity:0.8;color:#000000;fill:#e5e5e5;fill-opacity:0.9372549;fill-rule:nonzero;stroke:#000000;stroke-width:1;stroke-linecap:round;stroke-linejoin:bevel;stroke-miterlimit:4;stroke-opacity:1;stroke-dasharray:none;stroke-dashoffset:0;marker:none;visibility:visible;display:inline;overflow:visible;enable-background:accumulate"
         sodipodi:type="arc" />
      <path
         sodipodi:type="arc"
         style="opacity:0.8;color:#000000;fill:#e5e5e5;fill-opacity:0.9372549;fill-rule:nonzero;stroke:#000000;stroke-width:1;stroke-linecap:round;stroke-linejoin:bevel;stroke-miterlimit:4;stroke-opacity:1;stroke-dasharray:none;stroke-dashoffset:0;marker:none;visibility:visible;display:inline;overflow:visible;enable-background:accumulate"
         id="path3042"
         sodipodi:cx="350"
         sodipodi:cy="252.36218"
         sodipodi:rx="5"
         sodipodi:ry="5"
         d="m 355,252.36218 c 0,2.76143 -2.23858,5 -5,5 -2.76142,0 -5,-2.23857 -5,-5 0,-2.76142 2.23858,-5 5,-5 2.76142,0 5,2.23858 5,5 z"
         transform="translate(-215.8445,-401.72071)" />
      <path
         inkscape:export-ydpi="150.00424"
         inkscape:export-xdpi="150.00424"
         inkscape:export-filename="D:\w\papers\CaleyDomino-paper-2014\figures\path3291.png"
         sodipodi:nodetypes="cccccccccccccccccccccccccccccccccc"
         inkscape:connector-curvature="0"
         id="path3044"
         d="m 9.1555,-69.85852 0,-150 -9.5,-1e-5 6,5 -6,5 6,4.99999 -6,5 6,5 -6,5 6,5 -6,5 6,5 -6,5 6,5 -6,5 6,5 -6,5 6,5 -6,5 6,5 -6,5 6,5 -6,5 6,5 -6,5 6,5 -6,5 6,5 -6,5 6,5.00002 -6,5 6,5 -6,5 z"
         style="fill:#cccccc;fill-opacity:1;stroke:#000000;stroke-width:1px;stroke-linecap:butt;stroke-linejoin:miter;stroke-opacity:1" />
      <path
         style="fill:#cccccc;fill-opacity:1;stroke:#000000;stroke-width:1px;stroke-linecap:butt;stroke-linejoin:miter;stroke-opacity:1"
         d="m 160.1555,-68.85852 -150,0 0,9.5 5,-6 5,6 5,-6 5,6 5,-6 5,6 5,-6 5,6 5,-6 5,6 5,-6 5,6 5,-6 5,6 5,-6 5,6 5,-6 5,6 5,-6 5,6 5,-6 5,6 5,-6 5,6 5,-6 5,6 5,-6 5,6 5,-6 5,6 z"
         id="path3046"
         inkscape:connector-curvature="0"
         sodipodi:nodetypes="cccccccccccccccccccccccccccccccccc"
         inkscape:export-filename="D:\w\papers\CaleyDomino-paper-2014\figures\path3291.png"
         inkscape:export-xdpi="150.00424"
         inkscape:export-ydpi="150.00424" />
    </g>
    <g
       id="g3048"
       transform="translate(640.66593,603.88671)">
      <path
         transform="translate(-315.8445,-447.22071)"
         d="m 355,252.36218 c 0,2.76143 -2.23858,5 -5,5 -2.76142,0 -5,-2.23857 -5,-5 0,-2.76142 2.23858,-5 5,-5 2.76142,0 5,2.23858 5,5 z"
         sodipodi:ry="5"
         sodipodi:rx="5"
         sodipodi:cy="252.36218"
         sodipodi:cx="350"
         id="path3050"
         style="opacity:0.8;color:#000000;fill:#e5e5e5;fill-opacity:0.9372549;fill-rule:nonzero;stroke:#000000;stroke-width:1;stroke-linecap:round;stroke-linejoin:bevel;stroke-miterlimit:4;stroke-opacity:1;stroke-dasharray:none;stroke-dashoffset:0;marker:none;visibility:visible;display:inline;overflow:visible;enable-background:accumulate"
         sodipodi:type="arc" />
      <path
         sodipodi:type="arc"
         style="opacity:0.8;color:#000000;fill:#e5e5e5;fill-opacity:0.9372549;fill-rule:nonzero;stroke:#000000;stroke-width:1;stroke-linecap:round;stroke-linejoin:bevel;stroke-miterlimit:4;stroke-opacity:1;stroke-dasharray:none;stroke-dashoffset:0;marker:none;visibility:visible;display:inline;overflow:visible;enable-background:accumulate"
         id="path3052"
         sodipodi:cx="350"
         sodipodi:cy="252.36218"
         sodipodi:rx="5"
         sodipodi:ry="5"
         d="m 355,252.36218 c 0,2.76143 -2.23858,5 -5,5 -2.76142,0 -5,-2.23857 -5,-5 0,-2.76142 2.23858,-5 5,-5 2.76142,0 5,2.23858 5,5 z"
         transform="translate(-255.8445,-421.72071)" />
      <path
         transform="translate(-310.3445,-367.22071)"
         d="m 355,252.36218 c 0,2.76143 -2.23858,5 -5,5 -2.76142,0 -5,-2.23857 -5,-5 0,-2.76142 2.23858,-5 5,-5 2.76142,0 5,2.23858 5,5 z"
         sodipodi:ry="5"
         sodipodi:rx="5"
         sodipodi:cy="252.36218"
         sodipodi:cx="350"
         id="path3054"
         style="opacity:0.8;color:#000000;fill:#e5e5e5;fill-opacity:0.9372549;fill-rule:nonzero;stroke:#000000;stroke-width:1;stroke-linecap:round;stroke-linejoin:bevel;stroke-miterlimit:4;stroke-opacity:1;stroke-dasharray:none;stroke-dashoffset:0;marker:none;visibility:visible;display:inline;overflow:visible;enable-background:accumulate"
         sodipodi:type="arc" />
      <path
         sodipodi:type="arc"
         style="opacity:0.8;color:#000000;fill:#e5e5e5;fill-opacity:0.9372549;fill-rule:nonzero;stroke:#000000;stroke-width:1;stroke-linecap:round;stroke-linejoin:bevel;stroke-miterlimit:4;stroke-opacity:1;stroke-dasharray:none;stroke-dashoffset:0;marker:none;visibility:visible;display:inline;overflow:visible;enable-background:accumulate"
         id="path3056"
         sodipodi:cx="350"
         sodipodi:cy="252.36218"
         sodipodi:rx="5"
         sodipodi:ry="5"
         d="m 355,252.36218 c 0,2.76143 -2.23858,5 -5,5 -2.76142,0 -5,-2.23857 -5,-5 0,-2.76142 2.23858,-5 5,-5 2.76142,0 5,2.23858 5,5 z"
         transform="translate(-230.3445,-357.22071)" />
      <path
         transform="translate(-215.8445,-401.72071)"
         d="m 355,252.36218 c 0,2.76143 -2.23858,5 -5,5 -2.76142,0 -5,-2.23857 -5,-5 0,-2.76142 2.23858,-5 5,-5 2.76142,0 5,2.23858 5,5 z"
         sodipodi:ry="5"
         sodipodi:rx="5"
         sodipodi:cy="252.36218"
         sodipodi:cx="350"
         id="path3058"
         style="opacity:0.8;color:#000000;fill:#e5e5e5;fill-opacity:0.9372549;fill-rule:nonzero;stroke:#000000;stroke-width:1;stroke-linecap:round;stroke-linejoin:bevel;stroke-miterlimit:4;stroke-opacity:1;stroke-dasharray:none;stroke-dashoffset:0;marker:none;visibility:visible;display:inline;overflow:visible;enable-background:accumulate"
         sodipodi:type="arc" />
      <path
         style="fill:#cccccc;fill-opacity:1;stroke:#000000;stroke-width:1px;stroke-linecap:butt;stroke-linejoin:miter;stroke-opacity:1"
         d="m 9.1555,-69.85852 0,-150 -9.5,-1e-5 6,5 -6,5 6,4.99999 -6,5 6,5 -6,5 6,5 -6,5 6,5 -6,5 6,5 -6,5 6,5 -6,5 6,5 -6,5 6,5 -6,5 6,5 -6,5 6,5 -6,5 6,5 -6,5 6,5 -6,5 6,5.00002 -6,5 6,5 -6,5 z"
         id="path3060"
         inkscape:connector-curvature="0"
         sodipodi:nodetypes="cccccccccccccccccccccccccccccccccc"
         inkscape:export-filename="D:\w\papers\CaleyDomino-paper-2014\figures\path3291.png"
         inkscape:export-xdpi="150.00424"
         inkscape:export-ydpi="150.00424" />
      <path
         inkscape:export-ydpi="150.00424"
         inkscape:export-xdpi="150.00424"
         inkscape:export-filename="D:\w\papers\CaleyDomino-paper-2014\figures\path3291.png"
         sodipodi:nodetypes="cccccccccccccccccccccccccccccccccc"
         inkscape:connector-curvature="0"
         id="path3062"
         d="m 160.1555,-68.85852 -150,0 0,9.5 5,-6 5,6 5,-6 5,6 5,-6 5,6 5,-6 5,6 5,-6 5,6 5,-6 5,6 5,-6 5,6 5,-6 5,6 5,-6 5,6 5,-6 5,6 5,-6 5,6 5,-6 5,6 5,-6 5,6 5,-6 5,6 5,-6 5,6 z"
         style="fill:#cccccc;fill-opacity:1;stroke:#000000;stroke-width:1px;stroke-linecap:butt;stroke-linejoin:miter;stroke-opacity:1" />
    </g>
    <path
       style="fill:#e6e6e6;fill-opacity:1;stroke:#000000;stroke-width:1px;stroke-linecap:butt;stroke-linejoin:miter;stroke-opacity:1"
       d="m 425.82143,534.02819 0,-150 -7,0 6,5 -6,5 6,5 -6,5 6,5 -6,5 6,5 -6,5 6,5 -6,5 6,5 -6,5 6,5 -6,5 6,5 -6,5 6,5 -6,5 6,5 -6,5 6,5 -6,5 6,5 -6,5 6,5 -6,5 6,5.00002 -6,5 6,5 -6,5 z"
       id="path3245-1"
       inkscape:connector-curvature="0"
       sodipodi:nodetypes="cccccccccccccccccccccccccccccccccc"
       inkscape:export-filename="D:\w\papers\CaleyDomino-paper-2014\figures\path3291.png"
       inkscape:export-xdpi="150.00424"
       inkscape:export-ydpi="150.00424" />
    <path
       inkscape:export-ydpi="150.00424"
       inkscape:export-xdpi="150.00424"
       inkscape:export-filename="D:\w\papers\CaleyDomino-paper-2014\figures\path3291.png"
       sodipodi:nodetypes="cccccccccccccccccccccccccccccccccc"
       inkscape:connector-curvature="0"
       id="path3256-7"
       d="m 475.82143,534.02819 0,-150 1.16666,0 5.83334,5 -5.83334,5 5.83334,5 -5.83334,5 5.83334,5 -5.83334,5 5.83334,5 -5.83334,5 5.83334,5 -5.83334,5 5.83334,5 -5.83334,5 5.83334,5 -5.83334,5 5.83334,5 -5.83334,5 5.83334,5 -5.83334,5 5.83334,5 -5.83334,5 5.83334,5 -5.83334,5 5.83334,5 -5.83334,5 5.83334,5 -5.83334,5 5.83334,5.00002 -5.83334,5 5.83334,5 -5.83334,4.99998 z"
       style="fill:#e6e6e6;fill-opacity:1;stroke:#000000;stroke-width:1px;stroke-linecap:butt;stroke-linejoin:miter;stroke-opacity:1" />
    <g
       transform="translate(253.32143,66.67956)"
       id="g3546">
      <rect
         style="color:#000000;fill:#ababff;fill-opacity:1;fill-rule:nonzero;stroke:none;stroke-width:3;marker:none;visibility:visible;display:inline;overflow:visible;enable-background:accumulate"
         id="rect3837"
         width="50"
         height="25"
         x="173"
         y="416.8486" />
      <rect
         style="color:#000000;fill:#d3d3ff;fill-opacity:1;fill-rule:nonzero;stroke:none;stroke-width:3;marker:none;visibility:visible;display:inline;overflow:visible;enable-background:accumulate"
         id="rect3839"
         width="50"
         height="25"
         x="173"
         y="441.8486" />
      <rect
         style="color:#000000;fill:#8383ff;fill-opacity:1;fill-rule:nonzero;stroke:none;stroke-width:3;marker:none;visibility:visible;display:inline;overflow:visible;enable-background:accumulate"
         id="rect3841"
         width="50"
         height="25"
         x="173"
         y="391.8486" />
      <rect
         y="366.8486"
         x="173"
         height="25"
         width="50"
         id="rect3843"
         style="color:#000000;fill:#5b5bff;fill-opacity:1;fill-rule:nonzero;stroke:none;stroke-width:3;marker:none;visibility:visible;display:inline;overflow:visible;enable-background:accumulate" />
      <rect
         style="color:#000000;fill:#3333ff;fill-opacity:1;fill-rule:nonzero;stroke:none;stroke-width:3;marker:none;visibility:visible;display:inline;overflow:visible;enable-background:accumulate"
         id="rect3845"
         width="50"
         height="25"
         x="173"
         y="341.8486" />
      <rect
         y="317.84863"
         x="173"
         height="24.000002"
         width="50"
         id="rect3847"
         style="color:#000000;fill:#0b0bff;fill-opacity:1;fill-rule:nonzero;stroke:none;stroke-width:3;marker:none;visibility:visible;display:inline;overflow:visible;enable-background:accumulate" />
      <rect
         y="416.8486"
         x="173"
         height="25"
         width="50"
         id="rect3132"
         style="color:#000000;fill:#ababff;fill-opacity:1;fill-rule:nonzero;stroke:none;stroke-width:3;marker:none;visibility:visible;display:inline;overflow:visible;enable-background:accumulate" />
      <rect
         y="441.8486"
         x="173"
         height="25"
         width="50"
         id="rect3134"
         style="color:#000000;fill:#d3d3ff;fill-opacity:1;fill-rule:nonzero;stroke:none;stroke-width:3;marker:none;visibility:visible;display:inline;overflow:visible;enable-background:accumulate" />
      <rect
         style="color:#000000;fill:#5b5bff;fill-opacity:1;fill-rule:nonzero;stroke:none;stroke-width:3;marker:none;visibility:visible;display:inline;overflow:visible;enable-background:accumulate"
         id="rect3136"
         width="50"
         height="25"
         x="173"
         y="366.8486" />
      <rect
         y="391.8486"
         x="173"
         height="25"
         width="50"
         id="rect3142"
         style="color:#000000;fill:#8383ff;fill-opacity:1;fill-rule:nonzero;stroke:none;stroke-width:3;marker:none;visibility:visible;display:inline;overflow:visible;enable-background:accumulate" />
      <rect
         style="color:#000000;fill:#0b0bff;fill-opacity:1;fill-rule:nonzero;stroke:none;stroke-width:3;marker:none;visibility:visible;display:inline;overflow:visible;enable-background:accumulate"
         id="rect3144"
         width="50"
         height="24.000002"
         x="173"
         y="317.84863" />
      <rect
         style="color:#000000;fill:#d3d3ff;fill-opacity:1;fill-rule:nonzero;stroke:none;stroke-width:3;marker:none;visibility:visible;display:inline;overflow:visible;enable-background:accumulate"
         id="rect3146"
         width="50"
         height="25"
         x="173"
         y="441.8486" />
      <rect
         y="366.8486"
         x="173"
         height="25"
         width="50"
         id="rect3148"
         style="color:#000000;fill:#5b5bff;fill-opacity:1;fill-rule:nonzero;stroke:none;stroke-width:3;marker:none;visibility:visible;display:inline;overflow:visible;enable-background:accumulate" />
      <rect
         style="color:#000000;fill:none;stroke:#000000;stroke-width:1;stroke-miterlimit:4;stroke-opacity:1;stroke-dasharray:none;marker:none;visibility:visible;display:inline;overflow:visible;enable-background:accumulate"
         id="rect4153"
         width="50"
         height="150"
         x="172.5"
         y="317.34863" />
    </g>
    <path
       inkscape:export-ydpi="150.00424"
       inkscape:export-xdpi="150.00424"
       inkscape:export-filename="D:\w\papers\CaleyDomino-paper-2014\figures\path3291.png"
       sodipodi:nodetypes="cccccccccccccccccccccccccccccccccc"
       inkscape:connector-curvature="0"
       id="path3091"
       d="m 425.82143,697.02819 0,-150 -7,0 6,5 -6,5 6,5 -6,5 6,5 -6,5 6,5 -6,5 6,5 -6,5 6,5 -6,5 6,5 -6,5 6,5 -6,5 6,5 -6,5 6,5 -6,5 6,5 -6,5 6,5 -6,5 6,5 -6,5 6,5.00002 -6,5 6,5 -6,5 z"
       style="fill:#e6e6e6;fill-opacity:1;stroke:#000000;stroke-width:1px;stroke-linecap:butt;stroke-linejoin:miter;stroke-opacity:1" />
    <path
       style="fill:#e6e6e6;fill-opacity:1;stroke:#000000;stroke-width:1px;stroke-linecap:butt;stroke-linejoin:miter;stroke-opacity:1"
       d="m 475.65477,697.02819 0,-150 1.16666,0 5.83334,5 -5.83334,5 5.83334,5 -5.83334,5 5.83334,5 -5.83334,5 5.83334,5 -5.83334,5 5.83334,5 -5.83334,5 5.83334,5 -5.83334,5 5.83334,5 -5.83334,5 5.83334,5 -5.83334,5 5.83334,5 -5.83334,5 5.83334,5 -5.83334,5 5.83334,5 -5.83334,5 5.83334,5 -5.83334,5 5.83334,5 -5.83334,5 5.83334,5.00002 -5.83334,5 5.83334,5 -5.83334,4.99998 z"
       id="path3093"
       inkscape:connector-curvature="0"
       sodipodi:nodetypes="cccccccccccccccccccccccccccccccccc"
       inkscape:export-filename="D:\w\papers\CaleyDomino-paper-2014\figures\path3291.png"
       inkscape:export-xdpi="150.00424"
       inkscape:export-ydpi="150.00424" />
    <g
       id="g3095"
       transform="translate(253.32143,229.67956)">
      <rect
         y="416.8486"
         x="173"
         height="25"
         width="50"
         id="rect3097"
         style="color:#000000;fill:#ababff;fill-opacity:1;fill-rule:nonzero;stroke:none;stroke-width:3;marker:none;visibility:visible;display:inline;overflow:visible;enable-background:accumulate" />
      <rect
         y="441.8486"
         x="173"
         height="25"
         width="50"
         id="rect3099"
         style="color:#000000;fill:#d3d3ff;fill-opacity:1;fill-rule:nonzero;stroke:none;stroke-width:3;marker:none;visibility:visible;display:inline;overflow:visible;enable-background:accumulate" />
      <rect
         y="391.8486"
         x="173"
         height="25"
         width="50"
         id="rect3101"
         style="color:#000000;fill:#8383ff;fill-opacity:1;fill-rule:nonzero;stroke:none;stroke-width:3;marker:none;visibility:visible;display:inline;overflow:visible;enable-background:accumulate" />
      <rect
         style="color:#000000;fill:#5b5bff;fill-opacity:1;fill-rule:nonzero;stroke:none;stroke-width:3;marker:none;visibility:visible;display:inline;overflow:visible;enable-background:accumulate"
         id="rect3103"
         width="50"
         height="25"
         x="173"
         y="366.8486" />
      <rect
         y="341.8486"
         x="173"
         height="25"
         width="50"
         id="rect3105"
         style="color:#000000;fill:#3333ff;fill-opacity:1;fill-rule:nonzero;stroke:none;stroke-width:3;marker:none;visibility:visible;display:inline;overflow:visible;enable-background:accumulate" />
      <rect
         style="color:#000000;fill:#0b0bff;fill-opacity:1;fill-rule:nonzero;stroke:none;stroke-width:3;marker:none;visibility:visible;display:inline;overflow:visible;enable-background:accumulate"
         id="rect3107"
         width="50"
         height="24.000002"
         x="173"
         y="317.84863" />
      <rect
         style="color:#000000;fill:#ababff;fill-opacity:1;fill-rule:nonzero;stroke:none;stroke-width:3;marker:none;visibility:visible;display:inline;overflow:visible;enable-background:accumulate"
         id="rect3109"
         width="50"
         height="25"
         x="173"
         y="416.8486" />
      <rect
         style="color:#000000;fill:#d3d3ff;fill-opacity:1;fill-rule:nonzero;stroke:none;stroke-width:3;marker:none;visibility:visible;display:inline;overflow:visible;enable-background:accumulate"
         id="rect3111"
         width="50"
         height="25"
         x="173"
         y="441.8486" />
      <rect
         y="366.8486"
         x="173"
         height="25"
         width="50"
         id="rect3113"
         style="color:#000000;fill:#5b5bff;fill-opacity:1;fill-rule:nonzero;stroke:none;stroke-width:3;marker:none;visibility:visible;display:inline;overflow:visible;enable-background:accumulate" />
      <rect
         style="color:#000000;fill:#8383ff;fill-opacity:1;fill-rule:nonzero;stroke:none;stroke-width:3;marker:none;visibility:visible;display:inline;overflow:visible;enable-background:accumulate"
         id="rect3115"
         width="50"
         height="25"
         x="173"
         y="391.8486" />
      <rect
         y="317.84863"
         x="173"
         height="24.000002"
         width="50"
         id="rect3117"
         style="color:#000000;fill:#0b0bff;fill-opacity:1;fill-rule:nonzero;stroke:none;stroke-width:3;marker:none;visibility:visible;display:inline;overflow:visible;enable-background:accumulate" />
      <rect
         y="441.8486"
         x="173"
         height="25"
         width="50"
         id="rect3119"
         style="color:#000000;fill:#d3d3ff;fill-opacity:1;fill-rule:nonzero;stroke:none;stroke-width:3;marker:none;visibility:visible;display:inline;overflow:visible;enable-background:accumulate" />
      <rect
         style="color:#000000;fill:#5b5bff;fill-opacity:1;fill-rule:nonzero;stroke:none;stroke-width:3;marker:none;visibility:visible;display:inline;overflow:visible;enable-background:accumulate"
         id="rect3121"
         width="50"
         height="25"
         x="173"
         y="366.8486" />
      <rect
         y="317.34863"
         x="172.5"
         height="150"
         width="50"
         id="rect3123"
         style="color:#000000;fill:none;stroke:#000000;stroke-width:1;stroke-miterlimit:4;stroke-opacity:1;stroke-dasharray:none;marker:none;visibility:visible;display:inline;overflow:visible;enable-background:accumulate" />
    </g>
    <g
       transform="matrix(0,-1,1,0,136.29324,1072.3496)"
       id="g3125">
      <path
         inkscape:export-ydpi="150.00424"
         inkscape:export-xdpi="150.00424"
         inkscape:export-filename="D:\w\papers\CaleyDomino-paper-2014\figures\path3291.png"
         sodipodi:nodetypes="cccccccccccccccccccccccccccccccccc"
         inkscape:connector-curvature="0"
         id="path3127"
         d="m 313.32143,500.52819 0,-150 -7,0 6,5 -6,5 6,5 -6,5 6,5 -6,5 6,5 -6,5 6,5 -6,5 6,5 -6,5 6,5 -6,5 6,5 -6,5 6,5 -6,5 6,5 -6,5 6,5 -6,5 6,5 -6,5 6,5 -6,5 6,5.00002 -6,5 6,5 -6,5 z"
         style="fill:#e6e6e6;fill-opacity:1;stroke:#000000;stroke-width:1px;stroke-linecap:butt;stroke-linejoin:miter;stroke-opacity:1" />
      <path
         style="fill:#e6e6e6;fill-opacity:1;stroke:#000000;stroke-width:1px;stroke-linecap:butt;stroke-linejoin:miter;stroke-opacity:1"
         d="m 363.32143,500.52819 0,-150 1.16666,0 5.83334,5 -5.83334,5 5.83334,5 -5.83334,5 5.83334,5 -5.83334,5 5.83334,5 -5.83334,5 5.83334,5 -5.83334,5 5.83334,5 -5.83334,5 5.83334,5 -5.83334,5 5.83334,5 -5.83334,5 5.83334,5 -5.83334,5 5.83334,5 -5.83334,5 5.83334,5 -5.83334,5 5.83334,5 -5.83334,5 5.83334,5 -5.83334,5 5.83334,5.00002 -5.83334,5 5.83334,5 -5.83334,4.99998 z"
         id="path3129"
         inkscape:connector-curvature="0"
         sodipodi:nodetypes="cccccccccccccccccccccccccccccccccc"
         inkscape:export-filename="D:\w\papers\CaleyDomino-paper-2014\figures\path3291.png"
         inkscape:export-xdpi="150.00424"
         inkscape:export-ydpi="150.00424" />
      <g
         id="g3131"
         transform="translate(140.82142,33.179603)">
        <rect
           y="416.8486"
           x="173"
           height="25"
           width="50"
           id="rect3133"
           style="color:#000000;fill:#ababff;fill-opacity:1;fill-rule:nonzero;stroke:none;stroke-width:3;marker:none;visibility:visible;display:inline;overflow:visible;enable-background:accumulate" />
        <rect
           y="441.8486"
           x="173"
           height="25"
           width="50"
           id="rect3135"
           style="color:#000000;fill:#d3d3ff;fill-opacity:1;fill-rule:nonzero;stroke:none;stroke-width:3;marker:none;visibility:visible;display:inline;overflow:visible;enable-background:accumulate" />
        <rect
           y="391.8486"
           x="173"
           height="25"
           width="50"
           id="rect3137"
           style="color:#000000;fill:#8383ff;fill-opacity:1;fill-rule:nonzero;stroke:none;stroke-width:3;marker:none;visibility:visible;display:inline;overflow:visible;enable-background:accumulate" />
        <rect
           style="color:#000000;fill:#5b5bff;fill-opacity:1;fill-rule:nonzero;stroke:none;stroke-width:3;marker:none;visibility:visible;display:inline;overflow:visible;enable-background:accumulate"
           id="rect3139"
           width="50"
           height="25"
           x="173"
           y="366.8486" />
        <rect
           y="341.8486"
           x="173"
           height="25"
           width="50"
           id="rect3141"
           style="color:#000000;fill:#3333ff;fill-opacity:1;fill-rule:nonzero;stroke:none;stroke-width:3;marker:none;visibility:visible;display:inline;overflow:visible;enable-background:accumulate" />
        <rect
           style="color:#000000;fill:#0b0bff;fill-opacity:1;fill-rule:nonzero;stroke:none;stroke-width:3;marker:none;visibility:visible;display:inline;overflow:visible;enable-background:accumulate"
           id="rect3143"
           width="50"
           height="24.000002"
           x="173"
           y="317.84863" />
        <rect
           style="color:#000000;fill:#ababff;fill-opacity:1;fill-rule:nonzero;stroke:none;stroke-width:3;marker:none;visibility:visible;display:inline;overflow:visible;enable-background:accumulate"
           id="rect3145"
           width="50"
           height="25"
           x="173"
           y="416.8486" />
        <rect
           style="color:#000000;fill:#d3d3ff;fill-opacity:1;fill-rule:nonzero;stroke:none;stroke-width:3;marker:none;visibility:visible;display:inline;overflow:visible;enable-background:accumulate"
           id="rect3147"
           width="50"
           height="25"
           x="173"
           y="441.8486" />
        <rect
           y="366.8486"
           x="173"
           height="25"
           width="50"
           id="rect3149"
           style="color:#000000;fill:#5b5bff;fill-opacity:1;fill-rule:nonzero;stroke:none;stroke-width:3;marker:none;visibility:visible;display:inline;overflow:visible;enable-background:accumulate" />
        <rect
           style="color:#000000;fill:#8383ff;fill-opacity:1;fill-rule:nonzero;stroke:none;stroke-width:3;marker:none;visibility:visible;display:inline;overflow:visible;enable-background:accumulate"
           id="rect3151"
           width="50"
           height="25"
           x="173"
           y="391.8486" />
        <rect
           y="317.84863"
           x="173"
           height="24.000002"
           width="50"
           id="rect3153"
           style="color:#000000;fill:#0b0bff;fill-opacity:1;fill-rule:nonzero;stroke:none;stroke-width:3;marker:none;visibility:visible;display:inline;overflow:visible;enable-background:accumulate" />
        <rect
           y="441.8486"
           x="173"
           height="25"
           width="50"
           id="rect3155"
           style="color:#000000;fill:#d3d3ff;fill-opacity:1;fill-rule:nonzero;stroke:none;stroke-width:3;marker:none;visibility:visible;display:inline;overflow:visible;enable-background:accumulate" />
        <rect
           style="color:#000000;fill:#5b5bff;fill-opacity:1;fill-rule:nonzero;stroke:none;stroke-width:3;marker:none;visibility:visible;display:inline;overflow:visible;enable-background:accumulate"
           id="rect3157"
           width="50"
           height="25"
           x="173"
           y="366.8486" />
        <rect
           y="317.34863"
           x="172.5"
           height="150"
           width="50"
           id="rect3159"
           style="color:#000000;fill:none;stroke:#000000;stroke-width:1;stroke-miterlimit:4;stroke-opacity:1;stroke-dasharray:none;marker:none;visibility:visible;display:inline;overflow:visible;enable-background:accumulate" />
      </g>
    </g>
    <g
       id="g3161"
       transform="matrix(0,-1,1,0,300.29324,1072.3496)">
      <path
         style="fill:#e6e6e6;fill-opacity:1;stroke:#000000;stroke-width:1px;stroke-linecap:butt;stroke-linejoin:miter;stroke-opacity:1"
         d="m 313.32143,500.52819 0,-150 -7,0 6,5 -6,5 6,5 -6,5 6,5 -6,5 6,5 -6,5 6,5 -6,5 6,5 -6,5 6,5 -6,5 6,5 -6,5 6,5 -6,5 6,5 -6,5 6,5 -6,5 6,5 -6,5 6,5 -6,5 6,5.00002 -6,5 6,5 -6,5 z"
         id="path3163"
         inkscape:connector-curvature="0"
         sodipodi:nodetypes="cccccccccccccccccccccccccccccccccc"
         inkscape:export-filename="D:\w\papers\CaleyDomino-paper-2014\figures\path3291.png"
         inkscape:export-xdpi="150.00424"
         inkscape:export-ydpi="150.00424" />
      <path
         inkscape:export-ydpi="150.00424"
         inkscape:export-xdpi="150.00424"
         inkscape:export-filename="D:\w\papers\CaleyDomino-paper-2014\figures\path3291.png"
         sodipodi:nodetypes="cccccccccccccccccccccccccccccccccc"
         inkscape:connector-curvature="0"
         id="path3165"
         d="m 363.32143,500.52819 0,-150 1.16666,0 5.83334,5 -5.83334,5 5.83334,5 -5.83334,5 5.83334,5 -5.83334,5 5.83334,5 -5.83334,5 5.83334,5 -5.83334,5 5.83334,5 -5.83334,5 5.83334,5 -5.83334,5 5.83334,5 -5.83334,5 5.83334,5 -5.83334,5 5.83334,5 -5.83334,5 5.83334,5 -5.83334,5 5.83334,5 -5.83334,5 5.83334,5 -5.83334,5 5.83334,5.00002 -5.83334,5 5.83334,5 -5.83334,4.99998 z"
         style="fill:#e6e6e6;fill-opacity:1;stroke:#000000;stroke-width:1px;stroke-linecap:butt;stroke-linejoin:miter;stroke-opacity:1" />
      <g
         transform="translate(140.82142,33.179603)"
         id="g3167">
        <rect
           style="color:#000000;fill:#ababff;fill-opacity:1;fill-rule:nonzero;stroke:none;stroke-width:3;marker:none;visibility:visible;display:inline;overflow:visible;enable-background:accumulate"
           id="rect3169"
           width="50"
           height="25"
           x="173"
           y="416.8486" />
        <rect
           style="color:#000000;fill:#d3d3ff;fill-opacity:1;fill-rule:nonzero;stroke:none;stroke-width:3;marker:none;visibility:visible;display:inline;overflow:visible;enable-background:accumulate"
           id="rect3171"
           width="50"
           height="25"
           x="173"
           y="441.8486" />
        <rect
           style="color:#000000;fill:#8383ff;fill-opacity:1;fill-rule:nonzero;stroke:none;stroke-width:3;marker:none;visibility:visible;display:inline;overflow:visible;enable-background:accumulate"
           id="rect3173"
           width="50"
           height="25"
           x="173"
           y="391.8486" />
        <rect
           y="366.8486"
           x="173"
           height="25"
           width="50"
           id="rect3175"
           style="color:#000000;fill:#5b5bff;fill-opacity:1;fill-rule:nonzero;stroke:none;stroke-width:3;marker:none;visibility:visible;display:inline;overflow:visible;enable-background:accumulate" />
        <rect
           style="color:#000000;fill:#3333ff;fill-opacity:1;fill-rule:nonzero;stroke:none;stroke-width:3;marker:none;visibility:visible;display:inline;overflow:visible;enable-background:accumulate"
           id="rect3177"
           width="50"
           height="25"
           x="173"
           y="341.8486" />
        <rect
           y="317.84863"
           x="173"
           height="24.000002"
           width="50"
           id="rect3179"
           style="color:#000000;fill:#0b0bff;fill-opacity:1;fill-rule:nonzero;stroke:none;stroke-width:3;marker:none;visibility:visible;display:inline;overflow:visible;enable-background:accumulate" />
        <rect
           y="416.8486"
           x="173"
           height="25"
           width="50"
           id="rect3181"
           style="color:#000000;fill:#ababff;fill-opacity:1;fill-rule:nonzero;stroke:none;stroke-width:3;marker:none;visibility:visible;display:inline;overflow:visible;enable-background:accumulate" />
        <rect
           y="441.8486"
           x="173"
           height="25"
           width="50"
           id="rect3183"
           style="color:#000000;fill:#d3d3ff;fill-opacity:1;fill-rule:nonzero;stroke:none;stroke-width:3;marker:none;visibility:visible;display:inline;overflow:visible;enable-background:accumulate" />
        <rect
           style="color:#000000;fill:#5b5bff;fill-opacity:1;fill-rule:nonzero;stroke:none;stroke-width:3;marker:none;visibility:visible;display:inline;overflow:visible;enable-background:accumulate"
           id="rect3185"
           width="50"
           height="25"
           x="173"
           y="366.8486" />
        <rect
           y="391.8486"
           x="173"
           height="25"
           width="50"
           id="rect3187"
           style="color:#000000;fill:#8383ff;fill-opacity:1;fill-rule:nonzero;stroke:none;stroke-width:3;marker:none;visibility:visible;display:inline;overflow:visible;enable-background:accumulate" />
        <rect
           style="color:#000000;fill:#0b0bff;fill-opacity:1;fill-rule:nonzero;stroke:none;stroke-width:3;marker:none;visibility:visible;display:inline;overflow:visible;enable-background:accumulate"
           id="rect3189"
           width="50"
           height="24.000002"
           x="173"
           y="317.84863" />
        <rect
           style="color:#000000;fill:#d3d3ff;fill-opacity:1;fill-rule:nonzero;stroke:none;stroke-width:3;marker:none;visibility:visible;display:inline;overflow:visible;enable-background:accumulate"
           id="rect3191"
           width="50"
           height="25"
           x="173"
           y="441.8486" />
        <rect
           y="366.8486"
           x="173"
           height="25"
           width="50"
           id="rect3193"
           style="color:#000000;fill:#5b5bff;fill-opacity:1;fill-rule:nonzero;stroke:none;stroke-width:3;marker:none;visibility:visible;display:inline;overflow:visible;enable-background:accumulate" />
        <rect
           style="color:#000000;fill:none;stroke:#000000;stroke-width:1;stroke-miterlimit:4;stroke-opacity:1;stroke-dasharray:none;marker:none;visibility:visible;display:inline;overflow:visible;enable-background:accumulate"
           id="rect3195"
           width="50"
           height="150"
           x="172.5"
           y="317.34863" />
      </g>
    </g>
  </g>
</svg>
